# xmcd CD database file
#
# Track frame offsets:
#	150
#	88967
#	188384
#	227941
#	287943
#
# Disc length: 4584 seconds
#
# Revision: 0
# Processed by: cddbd v1.5.1PL0 Copyright (c) Steve Scherf et al.
# Submitted via: CDex 1.51
#
DISCID=4111e605
DTITLE=Clifford Brown - Live At The Bee--Hive
DYEAR=1955
DGENRE=Jazz
TTITLE0=Cherokee
TTITLE1=I'll Remember April, Part I
TTITLE2=I'll Remember April, Part II
TTITLE3=Woody'n You
TTITLE4=Hot House
EXTD=YEAR: 1955
EXTT0=
EXTT1=
EXTT2=
EXTT3=
EXTT4=
PLAYORDER=
